<svg width="100" height="100" xmlns="http://www.w3.org/2000/svg" xmlns:svg="http://www.w3.org/2000/svg">
    <g>
        <title>Layer 1</title>
        <g id="svg_1">
            <g id="svg_2">
                <g id="svg_3">
                    <g id="svg_4">
                        <g id="svg_5">
                            <path id="svg_6" d="m82.09209,35.20211c-0.51541,0 -1.02704,-0.20553 -1.40223,-0.61284c-9.72085,-10.54537 -22.62515,-16.35242 -36.34425,-16.35242s-26.62339,5.80705 -36.34425,16.35242c-0.70111,0.76979 -1.89869,0.81837 -2.6756,0.12705c-0.77691,-0.69132 -0.83376,-1.87589 -0.12885,-2.63821c10.44471,-11.33758 24.34951,-17.57811 39.1487,-17.57811s28.704,6.24053 39.1487,17.57811c0.7049,0.76605 0.64427,1.94689 -0.12885,2.64195c-0.36003,0.32137 -0.8186,0.48205 -1.27338,0.48205z"/>
                        </g>
                        <g id="svg_7">
                            <g id="svg_8">
                                <path id="svg_9" d="m16.33894,45.7699c-0.45478,0 -0.90955,-0.16068 -1.27338,-0.48579c-0.77312,-0.69505 -0.82997,-1.87589 -0.12885,-2.64195c14.40127,-15.62374 37.63657,-17.51084 54.04264,-4.38332c0.81102,0.65021 0.93987,1.82732 0.27666,2.627c-0.65564,0.80342 -1.84943,0.92674 -2.66423,0.27279c-15.06448,-12.04758 -35.60902,-10.366 -48.85061,4.00216c-0.3714,0.40358 -0.88681,0.60911 -1.40223,0.60911z"/>
                            </g>
                        </g>
                        <g id="svg_10">
                            <path id="svg_11" d="m26.08253,56.34142c-0.45478,0 -0.90955,-0.16068 -1.27338,-0.48579c-0.77312,-0.69505 -0.82997,-1.87589 -0.12885,-2.64195c8.997,-9.75689 21.72696,-10.38842 30.35256,-6.69268c0.95882,0.41105 1.39844,1.51342 0.98156,2.45884c-0.41688,0.94168 -1.53487,1.37889 -2.49369,0.96784c-7.38633,-3.17258 -18.30477,-2.61205 -26.03597,5.77716c-0.37519,0.41105 -0.8906,0.61658 -1.40223,0.61658z"/>
                        </g>
                        <path id="svg_12" d="m51.54624,73.25063c-1.00809,-2.71668 -1.51592,-5.50811 -1.51592,-8.30326c0,-0.82584 0.04548,-1.63674 0.12506,-2.44389c0.07201,-0.71374 -0.27666,-1.40505 -0.89818,-1.77874c-1.50455,-0.90432 -3.20239,-1.38263 -4.91159,-1.38263c-5.22235,0 -9.47452,4.19274 -9.47452,9.34211s4.25216,9.34211 9.47452,9.34211c2.56949,0 4.97602,-1.00521 6.77996,-2.82879c0.50783,-0.51568 0.6708,-1.27053 0.42067,-1.94689z"/>
                        <path id="svg_13" d="m74.66406,44.39474c-11.49448,0 -20.84394,9.21879 -20.84394,20.55263s9.34945,20.55263 20.84394,20.55263s20.84394,-9.21879 20.84394,-20.55263s-9.34945,-20.55263 -20.84394,-20.55263zm7.57961,22.42105l-5.68471,0l0,5.60526c0,1.03137 -0.84892,1.86842 -1.8949,1.86842s-1.8949,-0.83705 -1.8949,-1.86842l0,-5.60526l-5.68471,0c-1.04599,0 -1.8949,-0.83705 -1.8949,-1.86842s0.84892,-1.86842 1.8949,-1.86842l5.68471,0l0,-5.60526c0,-1.03137 0.84892,-1.86842 1.8949,-1.86842s1.8949,0.83705 1.8949,1.86842l0,5.60526l5.68471,0c1.04599,0 1.8949,0.83705 1.8949,1.86842s-0.84892,1.86842 -1.8949,1.86842z"/>
                    </g>
                </g>
            </g>
        </g>
    </g>
</svg>