<svg width="58" height="58" xmlns="http://www.w3.org/2000/svg" xmlns:svg="http://www.w3.org/2000/svg">
    <title>30-auto</title>
    <desc>Created with Sketch.</desc>
    <g>
        <title>Layer 1</title>
        <g fill="none" fill-rule="evenodd" id="svg_1">
            <g fill="#000000" id="svg_2">
                <path d="m29,58c-15.99,0 -29,-13.009 -29,-29c0,-15.991 13.01,-29 29,-29c15.99,0 29,13.009 29,29c0,15.991 -13.01,29 -29,29l0,0zm0,-56c-14.888,0 -27,12.112 -27,27c0,14.888 12.112,27 27,27c14.888,0 27,-12.112 27,-27c0,-14.888 -12.112,-27 -27,-27l0,0z" id="svg_3"/>
                <path d="m29,52c-12.683,0 -23,-10.318 -23,-23c0,-12.682 10.317,-23 23,-23c12.683,0 23,10.318 23,23c0,12.682 -10.317,23 -23,23l0,0zm0,-44c-11.579,0 -21,9.421 -21,21c0,11.579 9.421,21 21,21c11.579,0 21,-9.421 21,-21c0,-11.579 -9.421,-21 -21,-21l0,0z" id="svg_4"/>
                <path d="m12,30l-5,0c-0.553,0 -1,-0.448 -1,-1c0,-0.552 0.447,-1 1,-1l5,0c0.553,0 1,0.448 1,1c0,0.552 -0.447,1 -1,1" id="svg_5"/>
                <path d="m51,30l-5,0c-0.553,0 -1,-0.448 -1,-1c0,-0.552 0.447,-1 1,-1l5,0c0.553,0 1,0.448 1,1c0,0.552 -0.447,1 -1,1" id="svg_6"/>
                <path d="m21.34,27.398l-5.643,9.405l9.405,-5.643c0.438,-0.141 0.853,-0.373 1.201,-0.721c1.172,-1.172 1.172,-3.071 0,-4.242c-1.171,-1.172 -3.071,-1.172 -4.242,0c-0.348,0.348 -0.58,0.763 -0.721,1.201" id="svg_7"/>
                <path d="m35.667,29.394l7.773,-7.738l-10.5,3.17c-0.46,0.029 -0.919,0.152 -1.342,0.404c-1.423,0.85 -1.887,2.691 -1.038,4.114c0.849,1.423 2.691,1.888 4.114,1.039c0.422,-0.253 0.748,-0.599 0.993,-0.989" id="svg_8"/>
                <path d="m16.98,17.979c-0.256,0 -0.512,-0.097 -0.707,-0.292l-3.537,-3.536c-0.39,-0.391 -0.39,-1.024 0,-1.414c0.391,-0.391 1.024,-0.391 1.414,-0.001l3.537,3.536c0.39,0.391 0.39,1.024 0,1.414c-0.196,0.196 -0.452,0.293 -0.707,0.293" id="svg_9"/>
                <path d="m44.557,45.556c-0.256,0 -0.512,-0.097 -0.707,-0.292l-3.537,-3.536c-0.39,-0.391 -0.39,-1.024 0,-1.414c0.391,-0.391 1.024,-0.391 1.414,-0.001l3.537,3.536c0.39,0.391 0.39,1.024 0,1.414c-0.196,0.196 -0.452,0.293 -0.707,0.293" id="svg_10"/>
                <path d="m13.443,45.556c-0.256,0 -0.511,-0.097 -0.707,-0.293c-0.39,-0.39 -0.39,-1.023 0,-1.414l3.537,-3.536c0.39,-0.39 1.023,-0.39 1.414,0.001c0.39,0.39 0.39,1.023 0,1.414l-3.537,3.536c-0.195,0.195 -0.451,0.292 -0.707,0.292" id="svg_11"/>
                <path d="m41.021,17.979c-0.256,0 -0.512,-0.097 -0.708,-0.293c-0.39,-0.39 -0.39,-1.023 0,-1.414l3.537,-3.536c0.39,-0.39 1.023,-0.39 1.414,0.001c0.39,0.39 0.39,1.023 0,1.414l-3.537,3.536c-0.195,0.195 -0.451,0.292 -0.706,0.292" id="svg_12"/>
            </g>
        </g>
    </g>
</svg>