<svg width="100" height="100" xmlns="http://www.w3.org/2000/svg" xmlns:svg="http://www.w3.org/2000/svg">
    <g class="layer">
        <title>Layer 1</title>
        <g id="svg_1" transform="translate(0,-952.36218)">
            <path d="m49.78061,962.36664c-0.98577,0.10791 -1.80804,1.04193 -1.78674,2.02948l0,12.14655l-7.61712,-7.58765c-1.04703,-0.79486 -1.7944,-0.61407 -2.77314,-0.08197c-0.94252,0.91119 -0.53762,2.07208 -0.0481,2.92371l10.43828,10.39801l0,16.70538l-14.51328,-8.33698l-3.82424,-14.23871c-0.23115,-0.9032 -1.16739,-1.57123 -2.10019,-1.49884c-1.18022,0.086 -2.10409,1.39374 -1.78674,2.5293l2.78981,10.36676l-10.56366,-6.08893c-1.06459,-0.547 -1.87656,-0.07904 -2.64552,0.53241c-0.76873,1.12122 -0.005,2.2301 0.63936,2.93359l10.59501,6.08893l-10.40693,2.77899c-1.10437,0.1778 -1.90769,1.41461 -1.6178,2.49091c0.28989,1.07635 1.60684,1.74658 2.65222,1.34979l14.26252,-3.80951l14.48194,8.33722l-14.51329,8.36823l-14.23117,-3.80951c-1.2379,-0.26141 -2.50297,0.7829 -2.59122,1.81299c-0.0521,0.93237 0.64274,1.85138 1.5568,2.0592l10.34424,2.77911l-10.53232,6.05768c-0.91092,0.52319 -1.26187,1.82483 -0.73666,2.73218c0.52521,0.90741 1.83189,1.25702 2.74282,0.73383l10.56369,-6.08972l-2.78981,10.36676c-0.2708,1.01367 0.40869,2.18127 1.42628,2.45105c1.01759,0.26978 2.18985,-0.40698 2.46065,-1.42065l3.82424,-14.23871l14.51328,-8.33691l0,16.70532l-10.43828,10.39801c-0.77126,0.72998 -0.79263,2.10071 -0.0445,2.85413c0.74814,0.75366 2.12433,0.74744 2.86565,-0.01294l7.61712,-7.58777l0,12.17786c-0.0149,1.05579 0.94618,2.02686 2.00616,2.02686c1.05998,0 2.02114,-0.97107 2.00616,-2.02686l0,-12.17786l7.61712,7.58777c0.74132,0.76013 2.11751,0.76636 2.86566,0.01294c0.74813,-0.75342 0.72677,-2.12415 -0.0445,-2.85413l-10.4382,-10.39801l0,-16.70532l14.51329,8.33691l3.82423,14.23871c0.27081,1.01367 1.44306,1.69043 2.46066,1.42065c1.01759,-0.26978 1.69707,-1.43738 1.42628,-2.45105l-2.78981,-10.36676l10.56366,6.08893c0.91093,0.52319 2.21761,0.17358 2.74282,-0.73383c0.52522,-0.90735 0.17427,-2.20898 -0.73666,-2.73218l-10.56367,-6.05768l10.3756,-2.77911c0.99944,-0.21661 1.72575,-1.29279 1.54983,-2.29651c-0.17593,-1.00372 -1.22543,-1.77118 -2.23943,-1.63757c-0.11647,0.01099 -0.23199,0.03198 -0.34481,0.06195l-14.26252,3.80951l-14.48194,-8.3371l14.51329,-8.36835l14.23117,3.80951c1.04538,0.39679 2.36233,-0.27338 2.65221,-1.34979c0.28989,-1.07629 -0.51344,-2.31311 -1.6178,-2.49091l-10.40694,-2.77899l10.59502,-6.08887c1.04237,-1.04333 1.21149,-1.83765 0.6222,-2.95972c-0.93069,-0.83655 -1.61044,-0.86633 -2.62836,-0.50635l-10.56366,6.08893l2.78981,-10.3667c0.33781,-1.21521 -0.77336,-2.5946 -2.03751,-2.5293c-0.85004,0.03998 -1.63754,0.6778 -1.84943,1.49878l-3.82423,14.23871l-14.51329,8.33704l0,-16.70544l10.43828,-10.39801c0.77127,-0.72998 0.79263,-2.10071 0.0445,-2.85419c-0.74815,-0.7536 -2.12434,-0.74738 -2.86566,0.013l-7.61712,7.58759l0,-12.14648c-0.4615,-1.15509 -1.16743,-2.10632 -2.22562,-2.0293l0.00002,0l-0.00002,0z" fill="#000000" id="svg_2"/>
        </g>
    </g>
</svg>