<svg width="100" height="100" xmlns="http://www.w3.org/2000/svg" xmlns:svg="http://www.w3.org/2000/svg">
    <title>sun_light_lightness_lighter</title>
    <desc>Created with Sketch.</desc>
    <g>
        <title>Layer 1</title>
        <g fill="none" fill-rule="evenodd" id="svg_1">
            <path d="m71.13119,49.98474c0,-11.92137 -9.46077,-21.58558 -21.13119,-21.58558c-11.67041,0 -21.13119,9.6642 -21.13119,21.58558c0,11.92137 9.46077,21.58558 21.13119,21.58558c11.67042,0 21.13119,-9.66421 21.13119,-21.58558zm-38.03613,0c0,-9.53711 7.5686,-17.26846 16.90495,-17.26846c9.33635,0 16.90495,7.73135 16.90495,17.26846c0,9.53711 -7.5686,17.26846 -16.90495,17.26846c-9.33635,0 -16.90495,-7.73135 -16.90495,-17.26846zm16.90495,-47.48827c-1.16703,0 -2.11312,0.92749 -2.11312,2.14863l0,17.28832c0,1.18665 0.98019,2.14863 2.11312,2.14863c1.16704,0 2.11312,-0.92749 2.11312,-2.14863l0,-17.28832c0,-1.18665 -0.98019,-2.14863 -2.11312,-2.14863zm32.88296,13.91346c-0.82522,-0.84296 -2.13624,-0.8705 -2.98153,-0.00703l-11.96735,12.22473c-0.8214,0.83908 -0.79419,2.22729 0.00689,3.0456c0.82522,0.843 2.13625,0.8705 2.98153,0.00704l11.96735,-12.22469c0.82142,-0.83908 0.7942,-2.22733 -0.00688,-3.04564zm13.62057,33.59005c0,-1.19213 -0.90797,-2.15856 -2.1034,-2.15856l-16.92439,0c-1.16167,0 -2.10339,1.00131 -2.10339,2.15856c0,1.19217 0.908,2.15856 2.10339,2.15856l16.92439,0c1.16171,0 2.1034,-1.00127 2.1034,-2.15856zm-13.62057,33.5901c0.82521,-0.84296 0.85218,-2.18217 0.00688,-3.04564l-11.96735,-12.22469c-0.82141,-0.83912 -2.18044,-0.81132 -2.98153,0.00699c-0.82521,0.84301 -0.85217,2.18217 -0.00689,3.04564l11.96735,12.22473c0.82146,0.83908 2.18044,0.81128 2.98153,-0.00703zm-32.88296,13.91346c1.16704,0 2.11312,-0.92754 2.11312,-2.14863l0,-17.28832c0,-1.18664 -0.98019,-2.14862 -2.11312,-2.14862c-1.16703,0 -2.11312,0.92749 -2.11312,2.14862l0,17.28832c0,1.18665 0.98019,2.14863 2.11312,2.14863zm-32.88296,-13.91346c0.82521,0.84296 2.13624,0.87046 2.98152,0.00703l11.96735,-12.22473c0.82141,-0.83907 0.7942,-2.22729 -0.00689,-3.04564c-0.82522,-0.84296 -2.13624,-0.87046 -2.98153,-0.00699l-11.96735,12.22469c-0.82141,0.83907 -0.79424,2.22733 0.00689,3.04564zm-13.62057,-33.5901c0,1.19217 0.90797,2.15856 2.10336,2.15856l16.92443,0c1.16167,0 2.1034,-1.00127 2.1034,-2.15856c0,-1.19213 -0.90801,-2.15856 -2.1034,-2.15856l-16.92443,0c-1.16167,0 -2.10336,1.00131 -2.10336,2.15856zm13.62057,-33.59005c-0.82526,0.84296 -0.85218,2.18217 -0.00689,3.04564l11.96735,12.22469c0.82141,0.83912 2.18044,0.81131 2.98153,-0.00704c0.82521,-0.84296 0.85218,-2.18217 0.00689,-3.0456l-11.96735,-12.22473c-0.82145,-0.83908 -2.18044,-0.81127 -2.98152,0.00703z" fill="#000000" id="svg_2"/>
        </g>
    </g>
</svg>