<?xml version="1.0" ?>
<svg height="100" viewBox="0 0 100 100" width="100" xmlns="http://www.w3.org/2000/svg">
  <path d="m47.722,54.216l0,-37.198c-16.056,0.346 -29.608,10.329 -34.893,25.703l34.893,11.495z" fill="#000000"/>
  <path d="m25.623,85.974l8.488,-11.845l13.077,-18.249l-22.335,-7.357l-12.558,-4.138c0,0 0,0 0,0c-4.636,15.589 0.54,31.741 13.328,41.589l0,-0z" fill="#000000FF"/>
  <path d="m44.191,63.04l-17.172,23.963c6.484,4.568 13.922,6.979 21.564,6.979s15.081,-2.41 21.565,-6.979l-21.564,-30.095l-4.393,6.132l-0,0z" fill="#000000FF"/>
  <path d="m84.874,44.386l-7.362,2.425l-27.531,9.07l6.722,9.381l14.842,20.714c12.79,-9.848 17.966,-26.001 13.329,-41.59l0,-0z" fill="#000000FF"/>
  <path d="M49.118,56.165L49.447,56.624" fill="#000000" stroke-linecap="round" stroke-linejoin="round" stroke-width="0"/>
  <path d="m57.447,6.018l0,37.198l34.893,-11.494c0,0 0,0 0,0c-5.286,-15.375 -18.838,-25.359 -34.893,-25.704l0,0z" fill="#000000"/>
</svg>
