<?xml version="1.0" ?>
<svg height="100" viewBox="0 0 100 100" width="100" xmlns="http://www.w3.org/2000/svg">
  <path d="M85.671,25.192l-22.671,0l0,-22.058z" fill="#000000"/>
  <path d="M43,61h6v6h-6z" fill="#000000FF"/>
  <path d="M25,43h6v6h-6z" fill="#000000FF"/>
  <path d="m60,28l0,-28l-46,0l0,100l74,0l0,-72l-28,0zM41,41l10,0l0,10l-10,0l0,-10zM23,41l10,0l0,10l-10,0l0,-10zM33,87l-10,0l0,-10l10,0l0,10zM33,69l-10,0l0,-10l10,0l0,10zM51,87l-10,0l0,-10l10,0l0,10zM51,69l-10,0l0,-10l10,0l0,10zM82,84l-22,0l0,-4l22,0l0,4zM82,66l-22,0l0,-4l22,0l0,4zM82,48l-22,0l0,-4l22,0l0,4z" fill="#000000FF"/>
  <path d="M25,79h6v6h-6z" fill="#000000FF"/>
</svg>
