<svg xmlns="http://www.w3.org/2000/svg" xmlns:xlink="http://www.w3.org/1999/xlink" xmlns:sketch="http://www.bohemiancoding.com/sketch/ns" viewBox="0 0 100 100" version="1.1" x="0px" y="0px"><title>bug</title><desc>Created with Sketch.</desc><g stroke="none" stroke-width="1" fill="none" fill-rule="evenodd" sketch:type="MSPage"><path d="M94.0106536,40.9575715 C95.1708287,39.9934824 95.3342336,38.2831774 94.3755913,37.1230023 C93.4060554,35.9519336 91.6848567,35.7939755 90.5410222,36.7526178 C85.4427882,40.9684651 79.4894017,43.1907723 73.1547371,44.4217561 L73.1547371,42.2430236 C73.1547371,38.7842858 72.0109025,35.6033364 70.1317458,32.9943043 C74.930404,27.9668791 77.9207143,21.2019148 77.9207143,13.7234156 C77.9207143,12.2146434 76.7006242,11 75.1972988,11 C73.6885265,11 72.4738832,12.2146434 72.4738832,13.7234156 C72.4738832,19.7094831 70.0881711,25.1290801 66.2590488,29.165182 C66.1065375,29.0616922 65.9431326,28.9745429 65.7906213,28.8710531 C65.6816847,20.2214852 58.6225915,13.2059666 49.9457894,13.2059666 C41.2689873,13.2059666 34.2098941,20.2214852 34.1009575,28.8710531 C33.9484462,28.9745429 33.7850413,29.0616922 33.63253,29.165182 C29.8034077,25.1290801 27.4176957,19.7094831 27.4176957,13.7234156 C27.4176957,12.2146434 26.2030523,11 24.6942801,11 C23.1909547,11 21.9708645,12.2146434 21.9708645,13.7234156 C21.9708645,21.2019148 24.9611748,27.9668791 29.7598331,32.9943043 C27.8806763,35.6033364 26.7368418,38.7842858 26.7368418,42.2430236 L26.7368418,44.4272029 C20.4294113,43.2180064 14.5087058,41.0174866 9.44859961,36.8615544 C8.29931823,35.9029121 6.57811958,36.0663171 5.61947729,37.231939 C4.66628183,38.392114 4.82968677,40.1078658 5.99530864,41.0610613 C12.2155898,46.1810826 19.2910235,48.7465401 26.7368418,50.0428859 L26.7368418,57.9407911 C19.7322169,64.2863494 15.3039431,73.4206853 15.3039431,83.5899191 C15.3039431,85.0932445 16.5185865,86.3133347 18.0273587,86.3133347 C19.5306841,86.3133347 20.7507743,85.0932445 20.7507743,83.5899191 C20.7507743,76.9393382 23.0711244,70.8715683 26.8294379,65.9585266 C27.3196527,78.2084499 37.3690562,88.045427 49.7442567,88.045427 L50.152769,88.045427 C62.5225226,88.045427 72.5719261,78.2084499 73.0621409,65.9585266 C76.8204544,70.8715683 79.1408045,76.9393382 79.1408045,83.5899191 C79.1408045,85.0932445 80.3608947,86.3133347 81.8642201,86.3133347 C83.3729924,86.3133347 84.5876357,85.0932445 84.5876357,83.5899191 C84.5876357,73.4206853 80.159362,64.2863494 73.1547371,57.9407911 L73.1547371,50.0374391 C80.6332363,48.7301996 87.7467978,46.1320611 94.0106536,40.9575715 L94.0106536,40.9575715 Z" fill="#000000" sketch:type="MSShapeGroup"/></g></svg>