<svg xmlns="http://www.w3.org/2000/svg" xmlns:xlink="http://www.w3.org/1999/xlink" version="1.1" id="Layer_1" x="0px" y="0px" width="100px" height="100px" viewBox="0 0 100 100" enable-background="new 0 0 100 100" xml:space="preserve">
<path fill="#000000" d="M-134,56.994c0-1.648-0.464-3.206-1.274-4.609c-2.169-3.762-6.896-6.377-12.393-6.377  c-7.548,0-13.667,4.919-13.667,10.986c0,1.879,0.589,3.646,1.624,5.193c2.305,3.448,6.833,5.793,12.043,5.793  c1.224,0,2.409-0.131,3.538-0.374c5.245,5.035,9.814,3.133,9.814,3.133c-2.152-2.152-3.052-4.4-3.392-6.227  C-135.41,62.548-134,59.904-134,56.994z"/>
<path fill="#000000" d="M-147.667,44.081c5.93,0,11.081,2.638,13.771,6.528c2.363-3.337,3.729-7.189,3.729-11.304  c0-12.652-12.759-22.909-28.5-22.909s-28.5,10.257-28.5,22.909c0,6.068,2.94,11.581,7.731,15.68  c-0.709,3.808-2.585,8.496-7.073,12.983c0,0,9.529,3.965,20.465-6.534c1.313,0.283,2.667,0.479,4.047,0.605  c-0.921-1.608-1.437-3.398-1.437-5.285C-163.433,49.756-156.375,44.081-147.667,44.081z"/>
<path fill="#000000" d="M-18.375,38.75c0-7.525-6.1-13.625-13.625-13.625c-4.076,0-7.724,1.799-10.22,4.635  c-2.883-5.501-8.639-9.26-15.28-9.26c-9.527,0-17.25,7.723-17.25,17.25c0,0.467,0.033,0.926,0.07,1.384  c-7.441,0.097-13.445,6.152-13.445,13.616c0,7.525,6.1,13.625,13.625,13.625c1.852,0,3.616-0.373,5.226-1.042  C-66.19,68.22-62.058,70-57.5,70c3.135,0,6.066-0.85,8.6-2.312c2.533,2.235,5.741,3.757,9.349,4.189  c9.459,1.133,18.046-5.616,19.18-15.075c0.385-3.216-0.158-6.323-1.393-9.079C-19.66,45.325-18.375,42.191-18.375,38.75z"/>
<path fill="#000000" d="M100,100H0V0h100V100z M95,5H5v90h90V5z"/>
<rect x="47" y="13" fill="#000000" width="6" height="75"/>
<circle fill="#000000" cx="25.5" cy="29" r="16"/>
<path fill="#000000" d="M90.5,72c0,8.836-7.163,16-16,16s-16-7.164-16-16s7.163-16,16-16S90.5,63.164,90.5,72z M74.5,61  c-6.075,0-11,4.925-11,11s4.925,11,11,11s11-4.925,11-11S80.575,61,74.5,61z"/>
</svg>