<svg width="100" height="100" xmlns="http://www.w3.org/2000/svg" xmlns:svg="http://www.w3.org/2000/svg">
    <metadata/>
    <g>
        <title>Layer 1</title>
        <path d="m50.497,1.724c-17.727,0 -40.22,11.276 -37.021,65.276l74.075,0c3.069,-51 -19.372,-65.276 -37.054,-65.276zm27.886,58.276l-56.28,0c-2.43,-40 14.659,-49.596 28.12701,-49.596c13.43499,0 30.48599,10.596 28.15299,49.596z" id="svg_1"/>
        <rect x="60" y="63" width="10" height="35" id="svg_2"/>
        <rect x="32" y="63" width="10" height="35" id="svg_3"/>
    </g>
    <g>
        <title>Layer 2</title>
        <path id="svg_8" d="m100,100l-100,0l0,-100l100,0l0,100zm-5,-95l-90,0l0,90l90,0l0,-90z" fill="#000000"/>
        <g id="svg_12">
            <rect id="svg_9" height="40" width="3.03704" fill="#000000" y="16" x="49.48148"/>
            <circle id="svg_10" r="8.09877" cy="24.53333" cx="38.59877" fill="#000000"/>
            <path id="svg_11" d="m71.5,47.46667c0,4.71253 -3.62572,8.53334 -8.09877,8.53334s-8.09877,-3.8208 -8.09877,-8.53334s3.62572,-8.53333 8.09877,-8.53333s8.09877,3.8208 8.09877,8.53333zm-8.09877,-5.86666c-3.075,0 -5.5679,2.62667 -5.5679,5.86666s2.4929,5.86667 5.5679,5.86667s5.5679,-2.62667 5.5679,-5.86667s-2.4929,-5.86666 -5.5679,-5.86666z" fill="#000000"/>
        </g>
    </g>
</svg>