<svg width="64" height="64" xmlns="http://www.w3.org/2000/svg" xmlns:svg="http://www.w3.org/2000/svg">
    <g class="layer">
        <title>Layer 1</title>
        <g id="svg_1">
            <path d="m61,17l0,-9a3,3 0 0 0 -6,0l0,9a1,1 0 0 0 -1,1l0,23a1,1 0 0 0 1,1l2,0l0,17l-11,0l0,-3l5,0a1,1 0 0 0 1,-1l0,-52a1,1 0 0 0 -1,-1l-38,0a1,1 0 0 0 -1,1l0,52a1,1 0 0 0 1,1l5,0l0,3l-11,0l0,-17l2,0a1,1 0 0 0 1,-1l0,-23a1,1 0 0 0 -1,-1l0,-9a3,3 0 0 0 -6,0l0,9a1,1 0 0 0 -1,1l0,23a1,1 0 0 0 1,1l2,0l0,18a1,1 0 0 0 1,1l13,0a1,1 0 0 0 1,-1l0,-4l24,0l0,4a1,1 0 0 0 1,1l13,0a1,1 0 0 0 1,-1l0,-18l2,0a1,1 0 0 0 1,-1l0,-23a1,1 0 0 0 -1,-1zm-56,-9a1,1 0 0 1 2,0l0,9l-2,0l0,-9zm-1,11l4,0l0,21l-4,0l0,-21zm16,35l0,-1l1,0a1,1 0 0 0 1,-1l0,-3.37a4,4 0 1 0 -6,0l0,3.37a1,1 0 0 0 1,1l1,0l0,1l-4,0l0,-50l36,0l0,50l-4,0l0,-1l1,0a1,1 0 0 0 1,-1l0,-3.37a4,4 0 1 0 -6,0l0,3.37a1,1 0 0 0 1,1l1,0l0,1l-24,0zm-2,-3l0,-2.778a1,1 0 0 0 -0.33,-0.743a1.971,1.971 0 0 1 -0.67,-1.479a2,2 0 0 1 4,0a1.971,1.971 0 0 1 -0.67,1.479a1,1 0 0 0 -0.33,0.743l0,2.778l-2,0zm26,0l0,-2.778a1,1 0 0 0 -0.33,-0.743a1.971,1.971 0 0 1 -0.67,-1.479a2,2 0 0 1 4,0a1.971,1.971 0 0 1 -0.67,1.479a1,1 0 0 0 -0.33,0.743l0,2.778l-2,0zm13,-43a1,1 0 0 1 2,0l0,9l-2,0l0,-9zm3,32l-4,0l0,-21l4,0l0,21z" id="svg_2"/>
            <path d="m48,23l0,-16a1,1 0 0 0 -1,-1l-30,0a1,1 0 0 0 -1,1l0,16a1,1 0 0 0 1,1l30,0a1,1 0 0 0 1,-1zm-9.634,-6.356a8.98,8.98 0 0 1 2.575,5.356l-6.86,0l4.285,-5.356zm-6.847,5.356l-8.46,0a8.979,8.979 0 0 1 13.741,-6.6l-5.281,6.6zm14.481,0l-3.051,0a10.967,10.967 0 0 0 -3.333,-6.919l1.165,-1.456l-1.562,-1.25l-1.162,1.452a10.984,10.984 0 0 0 -17.006,8.173l-3.051,0l0,-14l28,0l0,14z" id="svg_3"/>
            <rect height="2" id="svg_4" width="6" x="42" y="36"/>
            <polygon id="svg_5" points="20 34 18 34 18 36 16 36 16 38 18 38 18 40 20 40 20 38 22 38 22 36 20 36 20 34"/>
        </g>
    </g>
</svg>